HIERARCHY
ROOT Hips
{
	OFFSET 0.000000 35.082581 0.000000
	CHANNELS 6 Xposition Yposition Zposition Xrotation Yrotation Zrotation 
	JOINT Spine
	{
		OFFSET 0.000000 6.876099 0.125700
		CHANNELS 3 Xrotation Yrotation Zrotation
		JOINT Spine1
		{
			OFFSET 0.000000 5.730043 0.104720
			CHANNELS 3 Xrotation Yrotation Zrotation
			JOINT Spine1_split
			{
				OFFSET 0.000000 5.730043 0.104720
				CHANNELS 3 Xrotation Yrotation Zrotation
				JOINT Spine2
				{
					OFFSET 0.000000 5.730043 0.104720
					CHANNELS 3 Xrotation Yrotation Zrotation
					JOINT Neck
					{
						OFFSET 0.000000 10.314075 0.188496
						CHANNELS 3 Xrotation Yrotation Zrotation
						JOINT Head
						{
							OFFSET 0.000000 7.643700 -2.377400
							CHANNELS 3 Xrotation Yrotation Zrotation
							JOINT HeadTop_End
							{
								OFFSET 0.000000 43.788605 -13.619600
								CHANNELS 3 Xrotation Yrotation Zrotation
								End Site
								{
									OFFSET 0.000000 0.000000 0.000000
								}
							}
						}
					}
					JOINT LeftShoulder
					{
						OFFSET 2.196100 4.412489 0.087492
						CHANNELS 3 Xrotation Yrotation Zrotation
						JOINT LeftShoulder_split
						{
							OFFSET 2.196100 4.412489 0.087492
							CHANNELS 3 Xrotation Yrotation Zrotation
							JOINT LeftArm
							{
								OFFSET 8.771219 -2.981674 -0.026999
								CHANNELS 3 Xrotation Yrotation Zrotation
								JOINT LeftForeArm
								{
									OFFSET 8.512804 0.000000 -0.000000
									CHANNELS 3 Xrotation Yrotation Zrotation
									JOINT LeftHand
									{
										OFFSET 18.484802 0.000000 -0.000000
										CHANNELS 3 Xrotation Yrotation Zrotation
										JOINT LeftHandThumb1
										{
											OFFSET 2.499420 -1.158070 2.653252
											CHANNELS 3 Xrotation Yrotation Zrotation
											JOINT LeftHandThumb2
											{
												OFFSET 2.370079 -1.368366 1.368366
												CHANNELS 3 Xrotation Yrotation Zrotation
												JOINT LeftHandThumb3
												{
													OFFSET 2.676727 -1.545410 1.545409
													CHANNELS 3 Xrotation Yrotation Zrotation
													JOINT LeftHandThumb4
													{
														OFFSET 1.692226 -0.977005 0.977007
														CHANNELS 3 Xrotation Yrotation Zrotation
														End Site
														{
															OFFSET 0.000000 0.000000 0.000000
														}
													}
												}
											}
										}
										JOINT LeftHandIndex1
										{
											OFFSET 7.924831 -0.457527 2.345128
											CHANNELS 3 Xrotation Yrotation Zrotation
											JOINT LeftHandIndex2
											{
												OFFSET 3.643303 0.000000 0.000000
												CHANNELS 3 Xrotation Yrotation Zrotation
												JOINT LeftHandIndex3
												{
													OFFSET 3.810799 0.000000 0.000000
													CHANNELS 3 Xrotation Yrotation Zrotation
													JOINT LeftHandIndex4
													{
														OFFSET 2.403702 0.000000 0.000000
														CHANNELS 3 Xrotation Yrotation Zrotation
														End Site
														{
															OFFSET 0.000000 0.000000 0.000000
														}
													}
												}
											}
										}
										JOINT LeftHandMiddle1
										{
											OFFSET 8.563995 0.000000 -0.000000
											CHANNELS 3 Xrotation Yrotation Zrotation
											JOINT LeftHandMiddle2
											{
												OFFSET 3.861618 0.000000 0.000000
												CHANNELS 3 Xrotation Yrotation Zrotation
												JOINT LeftHandMiddle3
												{
													OFFSET 3.701603 0.000000 0.000000
													CHANNELS 3 Xrotation Yrotation Zrotation
													JOINT LeftHandMiddle4
													{
														OFFSET 2.322544 0.000000 0.000000
														CHANNELS 3 Xrotation Yrotation Zrotation
														End Site
														{
															OFFSET 0.000000 0.000000 0.000000
														}
													}
												}
											}
										}
										JOINT LeftHandRing1
										{
											OFFSET 8.426460 -0.424637 -3.286992
											CHANNELS 3 Xrotation Yrotation Zrotation
											JOINT LeftHandRing2
											{
												OFFSET 3.126408 0.000000 0.000000
												CHANNELS 3 Xrotation Yrotation Zrotation
												JOINT LeftHandRing3
												{
													OFFSET 3.085026 0.000000 0.000000
													CHANNELS 3 Xrotation Yrotation Zrotation
													JOINT LeftHandRing4
													{
														OFFSET 1.644005 0.000000 0.000000
														CHANNELS 3 Xrotation Yrotation Zrotation
														End Site
														{
															OFFSET 0.000000 0.000000 0.000000
														}
													}
												}
											}
										}
									}
								}
							}
						}
					}
					JOINT RightShoulder
					{
						OFFSET -2.196100 4.412496 0.070690
						CHANNELS 3 Xrotation Yrotation Zrotation
						JOINT RightShoulder_split
						{
							OFFSET -2.196100 4.412496 0.070690
							CHANNELS 3 Xrotation Yrotation Zrotation
							JOINT RightArm
							{
								OFFSET -8.771282 -2.981682 -0.094208
								CHANNELS 3 Xrotation Yrotation Zrotation
								JOINT RightForeArm
								{
									OFFSET -8.494598 0.000000 0.000000
									CHANNELS 3 Xrotation Yrotation Zrotation
									JOINT RightHand
									{
										OFFSET -18.483803 0.000000 0.000001
										CHANNELS 3 Xrotation Yrotation Zrotation
										JOINT RightHandThumb1
										{
											OFFSET -2.527351 -1.008072 2.575253
											CHANNELS 3 Xrotation Yrotation Zrotation
											JOINT RightHandThumb2
											{
												OFFSET -2.321518 -1.340328 1.340329
												CHANNELS 3 Xrotation Yrotation Zrotation
												JOINT RightHandThumb3
												{
													OFFSET -2.657753 -1.534454 1.534455
													CHANNELS 3 Xrotation Yrotation Zrotation
													JOINT RightHandThumb4
													{
														OFFSET -1.807510 -1.043568 1.043567
														CHANNELS 3 Xrotation Yrotation Zrotation
														End Site
														{
															OFFSET 0.000000 0.000000 0.000000
														}
													}
												}
											}
										}
										JOINT RightHandIndex1
										{
											OFFSET -8.811420 0.015533 2.887987
											CHANNELS 3 Xrotation Yrotation Zrotation
											JOINT RightHandIndex2
											{
												OFFSET -3.537502 0.000000 0.000000
												CHANNELS 3 Xrotation Yrotation Zrotation
												JOINT RightHandIndex3
												{
													OFFSET -3.356201 0.000000 0.000000
													CHANNELS 3 Xrotation Yrotation Zrotation
													JOINT RightHandIndex4
													{
														OFFSET -1.933098 0.000000 0.000000
														CHANNELS 3 Xrotation Yrotation Zrotation
														End Site
														{
															OFFSET 0.000000 0.000000 0.000000
														}
													}
												}
											}
										}
										JOINT RightHandMiddle1
										{
											OFFSET -8.178135 0.000000 0.000000
											CHANNELS 3 Xrotation Yrotation Zrotation
											JOINT RightHandMiddle2
											{
												OFFSET -3.901302 0.000000 0.000000
												CHANNELS 3 Xrotation Yrotation Zrotation
												JOINT RightHandMiddle3
												{
													OFFSET -3.909599 0.000000 0.000000
													CHANNELS 3 Xrotation Yrotation Zrotation
													JOINT RightHandMiddle4
													{
														OFFSET -2.376003 0.000000 0.000000
														CHANNELS 3 Xrotation Yrotation Zrotation
														End Site
														{
															OFFSET 0.000000 0.000000 0.000000
														}
													}
												}
											}
										}
										JOINT RightHandRing1
										{
											OFFSET -7.559013 0.014137 -2.865403
											CHANNELS 3 Xrotation Yrotation Zrotation
											JOINT RightHandRing2
											{
												OFFSET -3.449306 0.000000 0.000000
												CHANNELS 3 Xrotation Yrotation Zrotation
												JOINT RightHandRing3
												{
													OFFSET -3.362106 0.000000 0.000000
													CHANNELS 3 Xrotation Yrotation Zrotation
													JOINT RightHandRing4
													{
														OFFSET -2.076401 0.000000 0.000000
														CHANNELS 3 Xrotation Yrotation Zrotation
														End Site
														{
															OFFSET 0.000000 0.000000 0.000000
														}
													}
												}
											}
										}
									}
								}
							}
						}
					}
				}
			}
		}
	}
	JOINT LeftUpLeg
	{
		OFFSET 10.205400 -3.823500 0.155100
		CHANNELS 3 Xrotation Yrotation Zrotation
		JOINT LeftLeg
		{
			OFFSET 0.708757 -12.982077 0.567790
			CHANNELS 3 Xrotation Yrotation Zrotation
			JOINT LeftFoot
			{
				OFFSET -0.708756 -10.717838 -2.184338
				CHANNELS 3 Xrotation Yrotation Zrotation
				JOINT LeftToeBase
				{
					OFFSET 0.108149 -7.191104 7.560241
					CHANNELS 3 Xrotation Yrotation Zrotation
					JOINT LeftToe_End
					{
						OFFSET 0.070230 0.081724 4.490308
						CHANNELS 3 Xrotation Yrotation Zrotation
						End Site
						{
							OFFSET 0.000000 0.000000 0.000000
						}
					}
				}
			}
		}
	}
	JOINT RightUpLeg
	{
		OFFSET -10.205400 -3.823500 0.005500
		CHANNELS 3 Xrotation Yrotation Zrotation
		JOINT RightLeg
		{
			OFFSET -0.708756 -12.982134 0.610632
			CHANNELS 3 Xrotation Yrotation Zrotation
			JOINT RightFoot
			{
				OFFSET 0.708754 -10.717769 -1.945823
				CHANNELS 3 Xrotation Yrotation Zrotation
				JOINT RightToeBase
				{
					OFFSET -0.108140 -7.191069 7.372968
					CHANNELS 3 Xrotation Yrotation Zrotation
					JOINT RightToe_End
					{
						OFFSET -0.070227 0.081735 4.479403
						CHANNELS 3 Xrotation Yrotation Zrotation
						End Site
						{
							OFFSET 0.000000 0.000000 0.000000
						}
					}
				}
			}
		}
	}
}
MOTION
Frames: 5
Frame Time: 0.016667
-0.127952 33.171608 5.122065 4.073697 36.476434 -2.925615 7.109370 0.541925 -2.267471 1.179945 0.647737 1.438047 0.000000 0.000000 0.000000 1.171140 0.823278 1.416792 -1.447717 25.849735 -8.284146 -8.495193 20.302442 -2.010672 -0.000000 0.000000 -0.000000 -0.063465 -2.703539 -0.485991 0.000000 0.000000 0.000000 -58.743800 21.372231 -22.798891 10.391495 -75.898367 11.787514 -50.033905 13.093982 4.982043 17.538862 -5.734667 -12.929140 10.855080 26.140258 8.645414 20.951658 51.158670 0.208873 -0.000001 -0.000001 -0.000001 13.990891 1.412560 -54.992018 0.369625 1.160697 -65.362561 1.981653 2.149137 -57.592592 -0.000000 0.000000 0.000000 7.444386 1.211138 -63.725528 1.805184 1.477061 -64.469479 0.129495 -0.913959 -43.167841 0.000000 0.000001 -0.000000 8.572759 2.194715 -75.055740 -0.208478 1.006760 -57.746415 0.442980 1.742079 -53.571824 0.000000 0.000004 -0.000001 4.836711 8.975272 6.727829 0.000000 0.000000 0.000000 10.740030 17.144869 61.498402 10.869389 22.267142 -5.100416 -0.365997 5.346425 5.429072 15.788498 -2.734451 -17.205875 -1.822807 -31.650820 7.412942 -6.030940 -5.243012 2.168334 -0.000000 0.000001 0.000002 2.375267 -3.654545 13.539317 -2.144070 -2.475446 24.342729 -1.902151 -4.809712 19.843100 0.000000 0.000000 -0.000001 -1.975825 -5.709690 18.810594 0.284030 -5.102729 32.657566 -0.662530 -1.222452 21.795098 0.000001 -0.000000 0.000001 -3.263389 -8.564380 16.917269 4.034733 -4.065636 38.932321 2.105437 -3.163320 21.262925 0.000000 -0.000000 0.000002 -36.605309 5.864618 3.254188 25.999303 -33.848041 -4.660737 2.567425 -6.461728 1.077855 -0.121070 -0.038764 -0.589219 -0.000001 -0.000000 0.000000 -23.696153 15.192501 1.012059 33.228764 12.875284 1.979880 -13.846163 2.555845 -0.283094 -0.761686 -0.032656 0.008811 0.000000 -0.000000 0.000000 
-0.315384 33.193306 5.219887 4.332551 39.302797 -3.382420 7.210872 0.407515 -2.455965 1.139006 0.472313 1.508124 0.000000 0.000000 0.000000 1.129819 0.658003 1.495974 -1.497329 24.861761 -8.282020 -9.017810 19.238498 -1.161757 -0.000000 0.000000 0.000000 -0.098273 -4.304842 -0.130047 0.000000 0.000000 0.000000 -58.723453 20.289132 -23.609876 9.881745 -75.007034 11.444790 -50.003357 13.081708 4.645818 17.538848 -5.734756 -12.929145 10.856092 26.142996 8.645550 20.949741 51.155330 0.209633 -0.000003 0.000000 0.000001 13.990632 1.416714 -54.990143 0.369575 1.160661 -65.359371 1.981589 2.149148 -57.590960 0.000000 0.000002 -0.000001 7.443659 1.211654 -63.724586 1.805168 1.477069 -64.467936 0.129481 -0.913974 -43.166283 0.000000 0.000002 -0.000000 8.572799 2.194738 -75.057584 -0.208449 1.006809 -57.748170 0.442983 1.742075 -53.573156 0.000000 -0.000004 0.000001 4.845235 8.887823 6.669453 0.000000 0.000000 0.000000 9.629273 15.060103 62.090251 10.941260 22.517805 -5.122151 -0.392309 5.635261 5.539870 15.788501 -2.734452 -17.205871 -1.914317 -31.520135 7.399901 -6.150521 -4.993755 2.220936 0.000002 -0.000006 -0.000002 2.374033 -3.654712 14.015424 -2.143515 -2.475498 24.691632 -1.902127 -4.809975 20.192040 -0.000002 0.000001 -0.000004 -1.975731 -5.709855 19.281534 0.284160 -5.104071 33.006479 -0.661543 -1.222718 22.144028 -0.000000 -0.000000 0.000000 -3.264519 -8.564571 17.388004 4.034665 -4.065544 39.281186 2.106993 -3.163359 21.611897 0.000000 -0.000000 -0.000000 -37.332861 6.109153 3.452742 25.046992 -37.039877 -4.756519 2.829670 -4.505848 0.081617 -0.111909 -0.038832 -0.619485 0.000001 -0.000000 0.000000 -22.369956 14.226301 1.278306 33.051497 11.887780 1.980191 -14.766504 1.492628 -1.015099 -0.760430 -0.032718 0.011428 0.000000 -0.000000 -0.000000 
-0.504217 33.209717 5.260776 4.735129 41.606743 -3.984810 7.285801 0.349283 -2.599054 1.074959 0.409424 1.547333 0.000000 0.000000 0.000000 1.065680 0.600858 1.538321 -1.669406 23.934919 -8.054794 -9.247518 18.341341 -0.647391 -0.000000 0.000000 0.000000 -0.137375 -5.857317 0.179686 0.000000 0.000000 0.000000 -58.765138 19.401610 -24.164875 9.711159 -74.412958 11.444995 -50.015976 13.301372 4.477778 17.538794 -5.734851 -12.929119 10.857137 26.145788 8.645655 20.947797 51.151949 0.210429 -0.000004 -0.000003 -0.000001 13.990308 1.420891 -54.988275 0.369536 1.160629 -65.356257 1.981559 2.149187 -57.589341 -0.000000 -0.000001 0.000000 7.442966 1.212100 -63.723616 1.805130 1.477066 -64.466447 0.129458 -0.914002 -43.164757 0.000000 -0.000002 0.000000 8.572836 2.194771 -75.059449 -0.208429 1.006842 -57.749905 0.443025 1.742093 -53.574488 -0.000000 -0.000001 0.000000 4.849110 8.873618 6.578567 0.000000 0.000000 0.000000 8.499948 12.815126 62.567347 10.948453 22.781432 -5.092094 -0.404706 5.981676 5.562208 15.788496 -2.734453 -17.205873 -1.995420 -31.404158 7.388584 -6.258805 -4.769349 2.268994 -0.000001 0.000000 -0.000000 2.372867 -3.654839 14.485513 -2.142875 -2.475696 25.045073 -1.902092 -4.810197 20.545417 0.000000 0.000001 -0.000002 -1.975675 -5.710050 19.743913 0.284326 -5.105403 33.359808 -0.660444 -1.222917 22.497432 0.000000 0.000000 -0.000001 -3.265554 -8.564771 17.850232 4.034659 -4.066039 39.634515 2.108559 -3.163463 21.965359 0.000000 0.000000 -0.000001 -37.903896 6.530314 4.756224 25.087336 -35.847917 -4.467236 2.364892 -4.844124 -0.752964 -0.094632 -0.039020 -0.589704 -0.000000 -0.000000 -0.000000 -21.491952 13.455374 1.622797 32.633029 10.647496 1.933284 -15.237836 0.959698 -1.351988 -0.759797 -0.032706 0.012688 0.000000 0.000001 0.000000 
-0.689945 33.222244 5.266358 5.172934 43.598382 -4.622837 7.370519 0.331556 -2.734797 1.021574 0.402670 1.586731 0.000000 0.000000 0.000000 1.011853 0.599502 1.577682 -1.918162 23.066302 -7.797578 -9.375051 17.512231 -0.237607 -0.000000 0.000000 0.000000 -0.156235 -7.215466 0.446622 0.000000 0.000000 0.000000 -58.915040 18.233873 -24.765147 9.439948 -73.554430 11.301860 -49.997483 13.434678 4.113528 17.538785 -5.734912 -12.929127 10.858155 26.148568 8.645799 20.945858 51.148616 0.211210 -0.000008 0.000001 -0.000002 13.990043 1.425093 -54.986417 0.369496 1.160575 -65.353053 1.981487 2.149207 -57.587736 0.000001 -0.000002 -0.000000 7.442264 1.212590 -63.722632 1.805074 1.477115 -64.464958 0.129456 -0.914041 -43.163223 0.000000 -0.000001 -0.000000 8.572862 2.194785 -75.061300 -0.208440 1.006890 -57.751654 0.443030 1.742094 -53.575796 -0.000000 0.000001 0.000000 4.849884 8.905636 6.467969 0.000000 0.000000 0.000000 7.348086 10.428505 62.949605 10.867225 23.018805 -5.002919 -0.408407 6.356058 5.557302 15.788498 -2.734455 -17.205873 -2.064806 -31.304792 7.379087 -6.354881 -4.573798 2.311981 -0.000000 0.000002 -0.000000 2.372190 -3.658607 14.937742 -2.142236 -2.475759 25.392321 -1.902042 -4.810380 20.892620 0.000001 -0.000000 0.000000 -1.975994 -5.710177 20.185574 0.284468 -5.106713 33.707001 -0.659251 -1.222989 22.844661 -0.000001 0.000001 -0.000000 -3.266481 -8.564911 18.291817 4.034687 -4.065973 39.981769 2.109979 -3.163525 22.312657 0.000001 -0.000000 -0.000000 -38.317723 6.440138 6.414583 25.142920 -33.741432 -4.426672 1.688011 -4.801754 -1.586272 -0.073164 -0.039230 -0.550328 -0.000000 -0.000000 -0.000000 -20.848596 12.721259 1.967296 32.138062 9.655501 1.876608 -15.475284 0.461795 -1.594468 -0.759144 -0.032707 0.013651 0.000000 0.000000 0.000000 
-0.876312 33.229900 5.232156 5.505369 45.181510 -5.156713 7.511693 0.359621 -2.895274 1.023297 0.451930 1.657558 0.000000 0.000000 0.000000 1.012045 0.657308 1.644971 -2.313508 22.315119 -7.654859 -9.473902 16.723040 0.190876 -0.000000 0.000000 -0.000000 -0.162172 -8.478685 0.698820 0.000000 0.000000 0.000000 -59.129754 17.140037 -25.251225 8.960978 -72.724788 10.955266 -49.984472 13.538441 3.789756 17.538760 -5.735011 -12.929117 10.859180 26.151350 8.645927 20.943986 51.145317 0.211951 -0.000004 -0.000003 -0.000000 13.989768 1.429202 -54.984536 0.369426 1.160535 -65.349829 1.981438 2.149216 -57.586124 0.000001 -0.000000 0.000000 7.441574 1.213032 -63.721697 1.805014 1.477139 -64.463455 0.129453 -0.914029 -43.161700 0.000000 0.000000 0.000000 8.572898 2.194814 -75.063164 -0.208441 1.006925 -57.753402 0.443056 1.742125 -53.577056 -0.000000 -0.000000 0.000000 4.846052 9.003017 6.330894 0.000000 0.000000 0.000000 6.141258 7.968137 63.262681 10.616779 23.109269 -4.849906 -0.402496 6.757274 5.561187 15.788498 -2.734456 -17.205877 -2.121036 -31.224025 7.371473 -6.435907 -4.409749 2.348442 0.000001 -0.000002 -0.000000 2.371523 -3.661685 15.359540 -2.141584 -2.475912 25.722749 -1.901963 -4.810486 21.223066 0.000000 0.000000 0.000002 -1.975798 -5.710331 20.594031 0.284606 -5.108001 34.037442 -0.657985 -1.222903 23.175141 0.000000 0.000000 -0.000001 -3.267317 -8.565081 18.700109 4.034784 -4.065330 40.312176 2.111275 -3.165368 22.643177 -0.000000 0.000000 0.000001 -38.490828 6.423312 8.321593 25.335719 -31.112249 -4.389246 0.920761 -4.653369 -2.389266 -0.049069 -0.039342 -0.505209 0.000001 0.000000 0.000000 -20.444826 12.031704 2.273934 31.700127 9.017465 1.807559 -15.498328 0.005936 -1.769016 -0.758511 -0.032783 0.014304 0.000000 -0.000001 0.000000 
